<svg xmlns="http://www.w3.org/2000/svg" viewBox="0 0 64 64" id="signature">
  <g>
    <path fill="#a0d468" d="M48.1,13a3.87,3.87,0,0,1-3.93,3.8H40.41V46.9a3.62,3.62,0,0,1-3.24,3.59,3.54,3.54,0,0,1-.73.07,3.45,3.45,0,0,1-.72-.07H10.53A3.79,3.79,0,0,1,11.29,43H15.1l0-29.93a3.93,3.93,0,0,1,3.2-3.73A3.45,3.45,0,0,1,19,9.23a3.54,3.54,0,0,1,.73.07H44.9A3.83,3.83,0,0,1,48.1,13Z"></path>
    <path fill="#8bc052" d="M20.08,16.68l-.06.15H19A4,4,0,0,0,20.08,16.68Z"></path>
    <path fill="#293149" d="M15.1,47.76a1,1,0,0,1-1-1V43a1,1,0,0,1,2,0v3.8A1,1,0,0,1,15.1,47.76Z"></path>
    <polygon fill="#ffc03d" points="20.48 57.57 22.15 52.5 23.82 47.42 27.22 50.82 30.62 54.22 25.55 55.9 20.48 57.57"></polygon>
    <path fill="#8bc052" d="M48.1,13a3.87,3.87,0,0,1-3.93,3.8H20l.06-.15a4,4,0,0,1-1.1.15h1s0,0,0,0c-3.09,8.08-4.78,19.22-1.59,33.71H10.85a4,4,0,0,1-3.52-3.74A3.83,3.83,0,0,1,10.87,43h4.2L15,13a4.06,4.06,0,0,1,3.52-3.73,4.34,4.34,0,0,1,.8-.08,3.54,3.54,0,0,1,.73.07H44.9A3.83,3.83,0,0,1,48.1,13Z"></path>
    <path fill="#8bc052" d="M20.08 16.68l-.06.15H19A4 4 0 0 0 20.08 16.68zM33 23.89H20.36a1 1 0 0 1 0-2H33a1 1 0 0 1 0 2zM28.68 28.28H20.36a1 1 0 0 1 0-2h8.32a1 1 0 0 1 0 2z"></path>
    <rect width="9.61" height="31.52" x="33.56" y="23.91" fill="#ffc03d" transform="rotate(45 38.367 39.672)"></rect>
    <path fill="#fcae30" d="M52.92,31.93,30.62,54.22l-5.07,1.67-5.07,1.68,1.36-4.14h0a55.56,55.56,0,0,0,5.76-2.22c16-7.22,18.17-18.27,17.7-25.26l.81-.81Z"></path>
    <path fill="#a0d468" d="M49.85,23.91H53a3.23,3.23,0,0,1,3.23,3.23v2.18a0,0,0,0,1,0,0H46.62a0,0,0,0,1,0,0V27.15A3.23,3.23,0,0,1,49.85,23.91Z" transform="rotate(45 51.427 26.612)"></path>
  </g>
</svg>
